<svg width="9" height="9" viewBox="0 0 9 9" fill="none" xmlns="http://www.w3.org/2000/svg">
<path d="M4.5 1H4H1.5C0.947715 1 0.5 1.44772 0.5 2V7.5C0.5 8.05228 0.947715 8.5 1.5 8.5H7C7.55228 8.5 8 8.05228 8 7.5V5V4.5" stroke="#4E4FAA" stroke-linejoin="round"/>
<path fill-rule="evenodd" clip-rule="evenodd" d="M8.43145 0.0975482C8.30139 -0.0325161 8.0905 -0.0325161 7.96045 0.0975482L7.66989 0.388091C7.2985 0.21067 6.84019 0.275772 6.53258 0.583394L3 4.11595L4.88402 6L8.4166 2.46743C8.72424 2.15981 8.78932 1.70151 8.6119 1.33011L8.90246 1.03957C9.03251 0.909504 9.03251 0.698624 8.90246 0.56856L8.43145 0.0975482ZM7.00998 2.93204L4.88402 5.05799L3.94202 4.11595L6.06797 1.99003L7.00998 2.93204ZM7.61557 2.32647L7.94559 1.99642C8.07568 1.86635 8.07568 1.65548 7.94559 1.52541L7.47459 1.0544C7.34453 0.924338 7.13364 0.924338 7.00358 1.0544L6.67352 1.38445L7.61557 2.32647Z" fill="#4E4FAA"/>
<path d="M4.51862 6.05401L2.35633 6.6437L2.94615 4.4814L4.51862 6.05401Z" stroke="#4E4FAA" stroke-width="0.5"/>
</svg>
